{"accessors":[{"bufferView":2,"componentType":5126,"count":272,"max":[0.31733599305152893,0.47673898935317993,-0.0806410014629364],"min":[-0.31733599305152893,-0.058437999337911606,-0.5076500177383423],"type":"VEC3"},{"bufferView":2,"byteOffset":3264,"componentType":5126,"count":272,"max":[0.9340780973434448,0.9938551783561707,0.9377336502075195],"min":[-0.9340780973434448,-0.9991333484649658,-0.9962129592895508],"type":"VEC3"},{"bufferView":1,"componentType":5126,"count":272,"max":[0.298248827457428,0.12648066878318787],"min":[0.02132176049053669,0.02299729734659195],"type":"VEC2"},{"bufferView":0,"componentType":5125,"count":1152,"type":"SCALAR"},{"bufferView":2,"byteOffset":6528,"componentType":5126,"count":2145,"max":[0.4604490101337433,1.4105160236358643,0.3757419288158417],"min":[-0.4604490101337433,-0.3642579913139343,-1.0053009986877441],"type":"VEC3"},{"bufferView":2,"byteOffset":32268,"componentType":5126,"count":2145,"max":[0.9990183115005493,0.9998841285705566,0.9998112916946411],"min":[-0.9990183115005493,-0.9996188282966614,-0.9989636540412903],"type":"VEC3"},{"bufferView":1,"byteOffset":2176,"componentType":5126,"count":2145,"max":[0.9876394867897034,0.9882075786590576],"min":[0.011742204427719116,0.01016166154295206],"type":"VEC2"},{"bufferView":0,"byteOffset":4608,"componentType":5125,"count":11124,"type":"SCALAR"},{"bufferView":2,"byteOffset":58008,"componentType":5126,"count":130,"max":[0.1959719955921173,-0.12931400537490845,0.05310700088739395],"min":[-0.1959719955921173,-0.20747999846935272,-0.10322500020265579],"type":"VEC3"},{"bufferView":2,"byteOffset":59568,"componentType":5126,"count":130,"max":[0.9807860255241394,-0.1950799822807312,0.9807860255241394],"min":[-0.9807860255241394,-1,-0.9807860255241394],"type":"VEC3"},{"bufferView":1,"byteOffset":19336,"componentType":5126,"count":130,"max":[0.4016946256160736,0.2193942368030548],"min":[0.32003873586654663,0.13798478245735168],"type":"VEC2"},{"bufferView":0,"byteOffset":49104,"componentType":5125,"count":672,"type":"SCALAR"}],"asset":{"extras":{"author":"zixisun02 (https://sketchfab.com/zixisun51)","license":"CC-BY-4.0 (http://creativecommons.org/licenses/by/4.0/)","source":"https://sketchfab.com/3d-models/shiba-faef9fe5ace445e7b2989d1c1ece361c","title":"Shiba"},"generator":"Sketchfab-12.68.0","version":"2.0"},"bufferViews":[{"buffer":0,"byteLength":51792,"name":"floatBufferViews","target":34963},{"buffer":0,"byteLength":20376,"byteOffset":51792,"byteStride":8,"name":"floatBufferViews","target":34962},{"buffer":0,"byteLength":61128,"byteOffset":72168,"byteStride":12,"name":"floatBufferViews","target":34962}],"buffers":[{"byteLength":133296,"uri":"data:application/octet-stream;base64,"}],"extensionsUsed":["KHR_materials_unlit"],"images":[{"uri":"data:application/octet-stream;base64,"}],"materials":[{"doubleSided":true,"extensions":{"KHR_materials_unlit":{}},"name":"default","pbrMetallicRoughness":{"baseColorTexture":{"index":0},"metallicFactor":0}}],"meshes":[{"name":"Group18985_default_0","primitives":[{"attributes":{"NORMAL":1,"POSITION":0,"TEXCOORD_0":2},"indices":3,"material":0,"mode":4}]},{"name":"Box002_default_0","primitives":[{"attributes":{"NORMAL":5,"POSITION":4,"TEXCOORD_0":6},"indices":7,"material":0,"mode":4}]},{"name":"Object001_default_0","primitives":[{"attributes":{"NORMAL":9,"POSITION":8,"TEXCOORD_0":10},"indices":11,"material":0,"mode":4}]}],"nodes":[{"children":[1],"matrix":[1,0,0,0,0,2.220446049250313e-16,-1,0,0,1,2.220446049250313e-16,0,0,0,0,1],"name":"Sketchfab_model"},{"children":[2],"matrix":[1,0,0,0,0,0,1,0,0,-1,0,0,0,0,0,1],"name":"1.FBX"},{"children":[3,5,7],"name":"RootNode"},{"children":[4],"matrix":[1,0,0,0,0,2.220446049250313e-16,-1,0,0,1,2.220446049250313e-16,0,0,0,0,1],"name":"Group18985"},{"mesh":0,"name":"Group18985_default_0"},{"children":[6],"matrix":[1,0,0,0,0,2.220446049250313e-16,-1,0,0,1,2.220446049250313e-16,0,0,0,0,1],"name":"Box002"},{"mesh":1,"name":"Box002_default_0"},{"children":[8],"matrix":[1,0,0,0,0,2.220446049250313e-16,-1,0,0,1,2.220446049250313e-16,0,0,0,0,1],"name":"Object001"},{"mesh":2,"name":"Object001_default_0"}],"samplers":[{"magFilter":9729,"minFilter":9987,"wrapS":10497,"wrapT":10497}],"scene":0,"scenes":[{"name":"Sketchfab_Scene","nodes":[0]}],"textures":[{"sampler":0,"source":0}]}